# xmcd
#
# Track frame offsets:
#	150
#	14115
#	28131
#	38547
#	54033
#	68844
#	84292
#	105159
#	117590
#	134778
#
# Disc length: 1985 seconds
#
# Revision: 1
# Processed by: cddbd v1.5.2PL0 Copyright (c) Steve Scherf et al.
# Submitted via: audiograbber 1.83.01
#
DISCID=7e07bf0a
DTITLE=Sarah Getto - on top of the world
DYEAR=1900
DGENRE=
TTITLE0=on top of the world
TTITLE1=here comes my baby back again
TTITLE2=snowbird
TTITLE3=moon river
TTITLE4=daddy's hands
TTITLE5=strangers again
TTITLE6=rock this country
TTITLE7=there goes my heart againTrack  8
TTITLE8=you needed me
TTITLE9=shadows in the moonlight
EXTD=
EXTT0=
EXTT1=
EXTT2=
EXTT3=
EXTT4=
EXTT5=
EXTT6=
EXTT7=
EXTT8=
EXTT9=
PLAYORDER=
